<?xml version="1.0" encoding="UTF-8" standalone="no"?>
<!DOCTYPE svg PUBLIC "-//W3C//DTD SVG 1.1//EN" "http://www.w3.org/Graphics/SVG/1.1/DTD/svg11.dtd">
<svg width="100%" height="100%" viewBox="0 0 1024 1024" version="1.1" xmlns="http://www.w3.org/2000/svg" xmlns:xlink="http://www.w3.org/1999/xlink" xml:space="preserve" xmlns:serif="http://www.serif.com/" style="fill-rule:evenodd;clip-rule:evenodd;stroke-linejoin:round;stroke-miterlimit:2;">
    <g transform="matrix(1,0,0,1,-3174.586366,-7185.868841)">
        <g transform="matrix(7.26947,0,0,7.627462,-12894.680204,-60443.000094)">
            <path d="M2225.684,8924.526L2228.458,8924.526C2228.813,8924.526 2229.007,8924.332 2229.071,8924.01L2229.329,8922.784C2229.781,8920.623 2234.684,8919.687 2234.684,8915.268C2234.684,8912.494 2232.297,8910.397 2229.329,8910.397C2225.684,8910.397 2223.845,8912.816 2223.426,8913.268C2223.2,8913.526 2223.103,8913.881 2223.297,8914.107L2224.781,8915.752C2225.007,8915.977 2225.394,8916.074 2225.716,8915.784C2226.2,8915.332 2227.362,8914.107 2228.652,8914.107C2229.749,8914.107 2230.362,8914.784 2230.362,8915.752C2230.362,8918.268 2225.845,8919.365 2225.394,8922.558L2225.2,8923.913C2225.168,8924.268 2225.394,8924.526 2225.684,8924.526ZM2223.523,8931.3C2223.523,8932.558 2224.491,8933.623 2225.781,8933.623C2227.297,8933.623 2228.781,8932.268 2228.781,8930.655C2228.781,8929.397 2227.813,8928.3 2226.523,8928.3C2224.974,8928.3 2223.523,8929.687 2223.523,8931.3Z" style="fill:rgb(57,57,57);fill-rule:nonzero;"/>
            <path d="M2238.684,8924.526L2241.458,8924.526C2241.813,8924.526 2242.007,8924.332 2242.071,8924.01L2242.329,8922.784C2242.781,8920.623 2247.684,8919.687 2247.684,8915.268C2247.684,8912.494 2245.297,8910.397 2242.329,8910.397C2238.684,8910.397 2236.845,8912.816 2236.426,8913.268C2236.2,8913.526 2236.104,8913.881 2236.297,8914.107L2237.781,8915.752C2238.007,8915.977 2238.394,8916.074 2238.716,8915.784C2239.2,8915.332 2240.362,8914.107 2241.652,8914.107C2242.749,8914.107 2243.362,8914.784 2243.362,8915.752C2243.362,8918.268 2238.846,8919.365 2238.394,8922.558L2238.2,8923.913C2238.168,8924.268 2238.394,8924.526 2238.684,8924.526ZM2236.523,8931.3C2236.523,8932.558 2237.491,8933.623 2238.781,8933.623C2240.297,8933.623 2241.781,8932.268 2241.781,8930.655C2241.781,8929.397 2240.813,8928.3 2239.523,8928.3C2237.975,8928.3 2236.523,8929.687 2236.523,8931.3Z" style="fill:rgb(57,57,57);fill-rule:nonzero;"/>
            <path d="M2251.684,8924.526L2254.459,8924.526C2254.813,8924.526 2255.007,8924.332 2255.071,8924.01L2255.33,8922.784C2255.781,8920.623 2260.684,8919.687 2260.684,8915.268C2260.684,8912.494 2258.297,8910.397 2255.33,8910.397C2251.684,8910.397 2249.846,8912.816 2249.426,8913.268C2249.2,8913.526 2249.104,8913.881 2249.297,8914.107L2250.781,8915.752C2251.007,8915.977 2251.394,8916.074 2251.717,8915.784C2252.2,8915.332 2253.362,8914.107 2254.652,8914.107C2255.749,8914.107 2256.362,8914.784 2256.362,8915.752C2256.362,8918.268 2251.846,8919.365 2251.394,8922.558L2251.2,8923.913C2251.168,8924.268 2251.394,8924.526 2251.684,8924.526ZM2249.523,8931.3C2249.523,8932.558 2250.491,8933.623 2251.781,8933.623C2253.297,8933.623 2254.781,8932.268 2254.781,8930.655C2254.781,8929.397 2253.813,8928.3 2252.523,8928.3C2250.975,8928.3 2249.523,8929.687 2249.523,8931.3Z" style="fill:rgb(57,57,57);fill-rule:nonzero;"/>
        </g>
        <g id="アートボード2" transform="matrix(0.739524,0,0,0.893284,607.501564,234.495815)">
            <rect x="3471.268" y="7781.814" width="1384.675" height="1146.331" style="fill:none;"/>
        </g>
    </g>
</svg>
