<?xml version="1.0" encoding="UTF-8" standalone="no"?>
<!DOCTYPE svg PUBLIC "-//W3C//DTD SVG 1.1//EN" "http://www.w3.org/Graphics/SVG/1.1/DTD/svg11.dtd">
<svg width="100%" height="100%" viewBox="0 0 1024 1024" version="1.1" xmlns="http://www.w3.org/2000/svg" xmlns:xlink="http://www.w3.org/1999/xlink" xml:space="preserve" xmlns:serif="http://www.serif.com/" style="fill-rule:evenodd;clip-rule:evenodd;stroke-linejoin:round;stroke-miterlimit:2;">
    <g transform="matrix(1,0,0,1,-3174.586366,-7185.868841)">
        <g id="アートボード2" transform="matrix(0.739524,0,0,0.893284,607.501564,234.495815)">
            <rect x="3471.268" y="7781.814" width="1384.675" height="1146.331" style="fill:none;"/>
            <clipPath id="_clip1">
                <rect x="3471.268" y="7781.814" width="1384.675" height="1146.331"/>
            </clipPath>
            <g clip-path="url(#_clip1)">
                <g transform="matrix(-0.324533,0,0,0.268671,4163.605574,8354.979681)">
                    <g transform="matrix(1,0,0,1,-2133.333333,-2133.333333)">
                        <clipPath id="_clip2">
                            <rect x="0" y="0" width="4266.667" height="4266.667"/>
                        </clipPath>
                        <g clip-path="url(#_clip2)">
                            <g transform="matrix(4.166667,0,0,4.166667,-58980,-32846.333333)">
                                <g id="Artboard1" transform="matrix(1,0,0,1,14155.2,7883.12)">
                                    <rect x="0" y="0" width="1024" height="1024" style="fill:none;"/>
                                    <g transform="matrix(1.10823,0,0,1,-7839.23,-9696.66)">
                                        <path d="M7724.17,10172.6L7719.5,10186L7747.21,10200.4L7763.86,10167.2L7724.17,10172.6Z" style="fill:rgb(255,229,213);"/>
                                    </g>
                                    <g transform="matrix(0.961923,0,0,0.961923,-2434.19,-9294.02)">
                                        <path d="M3028.19,10233.7C3030.46,10233.5 3032.73,10233.3 3034.98,10233L3034.98,10574.3L2792.87,10574.3C2741.01,10574.3 2695.32,10547.7 2668.75,10507.3C2666.88,10504.5 2667.08,10500.8 2669.25,10498.1C2671.42,10495.5 2675.05,10494.6 2678.21,10495.9C2690.27,10500.7 2703.43,10503.4 2717.22,10503.4C2765.01,10503.4 2805.3,10471.1 2817.39,10427.1C2790.03,10422.3 2766.26,10407.1 2750.42,10385.6C2748.59,10383.1 2748.38,10379.8 2749.88,10377.1C2751.38,10374.5 2754.31,10372.9 2757.37,10373.2C2759.74,10373.4 2762.14,10373.5 2764.57,10373.5C2782.48,10373.5 2798.95,10367.3 2811.91,10356.8C2829.09,10343 2840.09,10321.8 2840.09,10298L2840.09,10062.2C2840.1,10047.6 2841.93,10033.4 2845.37,10019.9L2883.01,9853.88C2905.09,9867.35 2924.1,9885.36 2938.73,9906.62C2952.72,9900 2967.74,9895.21 2983.48,9892.55C2992.84,9890.98 3002.44,9890.16 3012.24,9890.16L3094.51,9790.67C3107.34,9816.98 3114.53,9846.53 3114.53,9877.75C3114.53,9880.22 3114.49,9882.68 3114.4,9885.14C3113.95,9897.25 3112.43,9909.09 3109.91,9920.56C3115.74,9924.59 3130.37,9938.6 3141.2,9949.9C3149.41,9958.48 3154.97,9969.26 3157.18,9980.93C3159.89,9995.06 3161.3,10009.7 3161.3,10024.6C3161.3,10117.1 3106.8,10196.9 3028.19,10233.7Z" style="fill:rgb(232,128,165);"/>
                                    </g>
                                    <g transform="matrix(-0.961923,0,0,0.961923,3337.97,-9294.02)">
                                        <path d="M2840.09,10298L2840.09,10153.7C2840.09,10153.7 2917.23,10234.5 3012.24,10234.5C3019.95,10234.5 3027.54,10234 3034.98,10233L3034.98,10574.3L2792.87,10574.3C2740.16,10574.3 2693.83,10546.8 2667.46,10505.4C2665.8,10502.7 2666.05,10499.3 2668.07,10497C2670.1,10494.6 2673.42,10493.8 2676.27,10495.1C2688.86,10500.4 2702.69,10503.4 2717.22,10503.4C2765.01,10503.4 2805.3,10471.1 2817.39,10427.1C2789.45,10422.2 2765.26,10406.4 2749.42,10384.2C2747.79,10381.9 2747.66,10378.9 2749.07,10376.5C2750.49,10374.1 2753.19,10372.7 2755.97,10373C2758.79,10373.4 2761.66,10373.5 2764.57,10373.5C2782.48,10373.5 2798.95,10367.3 2811.91,10356.8C2829.09,10343 2840.09,10321.8 2840.09,10298Z" style="fill:rgb(232,128,165);"/>
                                    </g>
                                    <g transform="matrix(1,0,0,1,-1359.81,-9696.66)">
                                        <path d="M1818.39,10286.4L1859.19,10307.7L1791.78,10431.4L1806.76,10447.3L1778.33,10475.5C1769.01,10465.9 1759.21,10456.8 1749.89,10447.2C1749.13,10446.4 1748.67,10445.4 1748.17,10444.4C1747.7,10443.5 1745.06,10438.4 1746.09,10431.8C1746.26,10430.7 1746.36,10429.6 1746.84,10428.6C1770.47,10381.1 1794.76,10333.9 1818.39,10286.4Z" style="fill:rgb(203,203,211);"/>
                                        <g>
                                            <clipPath id="_clip3">
                                                <path d="M1818.39,10286.4L1859.19,10307.7L1791.78,10431.4L1806.76,10447.3L1778.33,10475.5C1769.01,10465.9 1759.21,10456.8 1749.89,10447.2C1749.13,10446.4 1748.67,10445.4 1748.17,10444.4C1747.7,10443.5 1745.06,10438.4 1746.09,10431.8C1746.26,10430.7 1746.36,10429.6 1746.84,10428.6C1770.47,10381.1 1794.76,10333.9 1818.39,10286.4Z"/>
                                            </clipPath>
                                            <g clip-path="url(#_clip3)">
                                                <path d="M1830.54,10574.9C1830.54,10574.9 1819.37,10370.8 1817.43,10335.5C1817.36,10334.1 1817.84,10332.7 1818.76,10331.7C1819.68,10330.7 1820.97,10330.1 1822.35,10330L1822.37,10330C1825.19,10329.9 1827.59,10332 1827.75,10334.9C1829.67,10369.9 1840.86,10574.3 1840.86,10574.3C1840.86,10574.3 1830.84,10580.3 1830.54,10574.9Z" style="fill:rgb(172,172,182);"/>
                                            </g>
                                        </g>
                                    </g>
                                    <g transform="matrix(1,0,0,1,-1360.27,-9696.66)">
                                        <path d="M1933.89,10253.4L1988.46,10465.6C1988.46,10465.6 2005.45,10479.8 2016.43,10489C2021.9,10493.6 2023.94,10501.1 2021.54,10507.8C2013.86,10529.3 1997.8,10574.3 1997.8,10574.3L1840.86,10574.3L1824.32,10272.2L1933.89,10253.4Z" style="fill:rgb(203,203,211);"/>
                                    </g>
                                    <g transform="matrix(1,0,0,1,-1360.27,-9696.66)">
                                        <path d="M1929.17,10311.5L1921.7,10262.2L2036.32,10248C2036.32,10248 2069.6,10191.6 2074.74,10182.9C2075.11,10182.3 2075.91,10182.1 2076.54,10182.4C2081.74,10185.3 2103.15,10197.1 2108.39,10200C2109.03,10200.4 2109.27,10201.2 2108.92,10201.8C2094.82,10228.1 2081.3,10254.8 2067.19,10281.1C2066.67,10282.1 2065.83,10282.8 2065.05,10283.6C2062.7,10286 2060.2,10287.3 2059.73,10287.5C2058.75,10288.1 2057.76,10288.7 2056.67,10288.9C2014.21,10296.6 1971.63,10303.7 1929.17,10311.5Z" style="fill:rgb(203,203,211);"/>
                                    </g>
                                    <g transform="matrix(0.961923,0,0,0.961923,-4539.5,-9294.02)">
                                        <path d="M5255.46,10238.9C5253.14,10239.5 5250.81,10240.1 5248.46,10240.5C5248.02,10240.6 5247.58,10240.7 5247.14,10240.8L5205.79,10247.6L5200.57,10215.9C5167.36,10191.9 5145.73,10152.9 5145.73,10108.8C5145.73,10080.2 5154.84,10053.7 5170.32,10032.1C5173.97,10027 5177.97,10022.2 5182.29,10017.7C5206.34,9992.49 5240.22,9976.81 5277.73,9976.81C5293.74,9976.81 5309.09,9979.67 5323.3,9984.9C5332.14,10031.9 5348.47,10076.2 5371,10116.6C5374.7,10123.2 5375.17,10131.1 5372.27,10138.1C5351.65,10187.7 5308.42,10225.6 5255.46,10238.9Z" style="fill:rgb(255,229,213);"/>
                                    </g>
                                    <g transform="matrix(1,0,0,1,-8194.57,-9696.66)">
                                        <path d="M8762.49,10156.3C8761.95,10156.3 8760.99,10156.4 8760.34,10156.7C8758.4,10157.4 8756.38,10158.8 8754.85,10160.8C8753.31,10162.7 8750.48,10163.1 8748.53,10161.5C8746.58,10160 8746.25,10157.1 8747.78,10155.2C8751.86,10150 8758.05,10147.2 8762.54,10147.2C8765.43,10147.3 8767.82,10148.3 8769.42,10150.1C8770.8,10151.7 8771.73,10154 8771.51,10157.1C8771.43,10158.2 8771.18,10159.5 8770.69,10161C8775.39,10161.7 8778.81,10164.7 8780.04,10167.9C8782,10173 8779.6,10181.5 8765.32,10183.4C8762.85,10183.7 8760.59,10182 8760.26,10179.5C8759.93,10177.1 8761.66,10174.8 8764.12,10174.5C8767.09,10174.1 8769.23,10173.4 8770.62,10172.4C8771.17,10172 8771.61,10171.6 8771.66,10171.2C8771.69,10170.9 8771.42,10170.7 8771.17,10170.6C8770.36,10170 8769.17,10169.8 8767.79,10170C8766.84,10170.2 8765.82,10170.5 8764.76,10171.1C8762.94,10172 8760.72,10171.6 8759.34,10170.1C8757.95,10168.6 8757.77,10166.4 8758.89,10164.6C8760.45,10162.2 8761.49,10160.2 8762.07,10158.5C8762.32,10157.8 8762.44,10156.8 8762.49,10156.3Z" style="fill:rgb(229,157,229);"/>
                                    </g>
                                    <g transform="matrix(1,0,0,1,-8192.25,-9698.72)">
                                        <path d="M8760.74,10099.4C8759.36,10097.3 8759.91,10094.5 8761.98,10093.1C8764.04,10091.8 8766.84,10092.3 8768.22,10094.4C8769.1,10095.7 8770.9,10097.4 8772.34,10098.5L8795.06,10095.9C8797.53,10095.6 8799.76,10097.4 8800.04,10099.8C8800.32,10102.3 8798.55,10104.5 8796.08,10104.8L8771.66,10107.6C8770.66,10107.7 8769.65,10107.5 8768.8,10107C8766.62,10105.6 8762.49,10102 8760.74,10099.4Z"/>
                                    </g>
                                    <g transform="matrix(0.960479,-0.052684,0.052684,0.960479,-4035.01,-9061.84)">
                                        <path d="M4053.65,10191.6L4027.18,10191.6L4027.18,9997.68L4113.4,9997.68L4113.4,10148.4C4113.4,10169.6 4130.64,10186.9 4151.87,10186.9C4157.1,10186.9 4162.09,10185.8 4166.64,10183.9C4159.19,10208.9 4136.06,10227.1 4108.71,10227.1C4084.24,10227.1 4063.16,10212.5 4053.65,10191.6Z" style="fill:rgb(232,128,165);"/>
                                    </g>
                                    <g transform="matrix(0.961923,0,0,0.961923,-3510.35,-9294.02)">
                                        <path d="M4198.26,9918.19C4260.3,9930.35 4297.71,10083.6 4202.38,10102C4211.11,10093.6 4208.91,10069.7 4191.76,10060.5C4149.35,10037.8 4080.26,10053.3 4098.86,9951.43C4103.32,9927.01 4135.65,9905.92 4198.26,9918.19Z" style="fill:rgb(232,128,165);"/>
                                    </g>
                                    <g transform="matrix(0.960479,-0.052684,0.052684,0.960479,-4035.01,-9061.84)">
                                        <path d="M4248.34,9972.99C4247.37,9970.6 4248.53,9967.87 4250.93,9966.9C4253.32,9965.94 4256.05,9967.1 4257.02,9969.49C4278.92,10023.8 4269.72,10101.1 4201.26,10110.5C4199.21,10110.8 4197.22,10109.7 4196.37,10107.8C4195.51,10105.9 4196,10103.7 4197.57,10102.3C4200.38,10099.9 4201.7,10095.4 4201.77,10090.5C4201.88,10082.4 4198.3,10073 4189.86,10067.9C4177.72,10060.5 4162.99,10056.4 4149.03,10051.5C4137.74,10047.6 4126.95,10043.1 4118.08,10036.4L4118.08,10148.4C4118.08,10167 4133.22,10182.2 4151.87,10182.2C4156.46,10182.2 4160.85,10181.3 4164.84,10179.6C4166.51,10178.9 4168.43,10179.2 4169.77,10180.4C4171.11,10181.6 4171.64,10183.5 4171.12,10185.2C4163.09,10212.1 4138.17,10231.7 4108.71,10231.7C4082.35,10231.7 4059.63,10216 4049.39,10193.5C4048.32,10191.2 4049.36,10188.4 4051.71,10187.3C4054.06,10186.2 4056.84,10187.3 4057.91,10189.6C4066.68,10208.9 4086.14,10222.4 4108.71,10222.4C4130.76,10222.4 4149.84,10209.6 4158.88,10191C4156.6,10191.3 4154.26,10191.5 4151.87,10191.5C4128.06,10191.5 4108.73,10172.2 4108.73,10148.4L4108.73,10025.8C4108.73,10023.9 4109.93,10022.1 4111.75,10021.5C4113.56,10020.8 4115.62,10021.3 4116.91,10022.7C4125.76,10032.7 4138.62,10038 4152.11,10042.7C4166.7,10047.8 4182.04,10052.1 4194.73,10059.9C4206.23,10066.9 4211.27,10079.6 4211.12,10090.6C4211.08,10093.7 4210.64,10096.6 4209.85,10099.2C4262.49,10084.9 4267.03,10019.3 4248.34,9972.99Z" style="fill:rgb(196,111,164);"/>
                                    </g>
                                    <g transform="matrix(1.05567,0,0,1,-5023.88,-9717)">
                                        <path d="M5190.31,10654.7C5187.14,10654.7 5184.3,10652.6 5183.18,10649.5C5179.43,10638.6 5177.31,10626.3 5177.31,10613.2C5177.31,10568.5 5202.4,10532.1 5233.3,10532.1C5264.2,10532.1 5289.29,10568.5 5289.29,10613.2C5289.29,10626.3 5287.17,10638.6 5283.4,10649.5C5282.28,10652.6 5279.45,10654.7 5276.3,10654.7L5190.31,10654.7Z" style="fill:rgb(89,48,102);"/>
                                    </g>
                                    <g transform="matrix(0.906024,-0.047656,-0.047656,0.975833,-3714.31,-9184.65)">
                                        <path d="M5403.31,10569.1C5400.18,10575.3 5394.46,10577.1 5393.44,10577.4C5392.48,10577.7 5386.65,10579.6 5380.38,10576.4C5364.09,10568 5348.24,10558.8 5332.17,10550.1C5331.24,10549.5 5325.94,10546.7 5323.45,10540.4C5322.69,10538.5 5322.27,10536.4 5322.31,10534.5L5323.69,10528.7C5324.96,10527.2 5325.91,10525.5 5327.49,10524.3C5332.42,10520.5 5338.3,10521.1 5339.32,10521.2C5341.55,10521.4 5343.8,10522.1 5345.88,10523L5395.59,10546.4C5397.38,10547.8 5399.47,10548.9 5400.94,10550.6C5405.52,10555.8 5405.12,10561.7 5405.06,10562.7C5404.83,10566.1 5404.83,10566.1 5403.31,10569.1Z" style="fill:rgb(254,179,16);"/>
                                    </g>
                                    <g transform="matrix(1.13245,-0.295352,0.276563,1.06041,-2077.61,-929.558)">
                                        <path d="M1756.04,1920.35C1756.38,1920.19 1756.6,1919.84 1756.6,1919.44C1756.6,1919.04 1756.38,1918.69 1756.04,1918.53C1751.7,1916.62 1748.64,1911.95 1748.64,1906.44C1748.64,1899.25 1753.86,1893.42 1760.29,1893.42L1885.14,1893.42C1891.57,1893.42 1896.78,1899.25 1896.78,1906.44C1896.78,1911.7 1894.02,1916.04 1890,1918.13C1889.53,1918.39 1889.23,1918.91 1889.23,1919.47C1889.23,1920.04 1889.52,1920.56 1890,1920.82C1894.01,1922.92 1896.78,1927.22 1896.78,1932.47C1896.78,1939.66 1891.57,1945.49 1885.14,1945.49L1760.29,1945.49C1753.86,1945.49 1748.64,1939.66 1748.64,1932.47C1748.64,1926.96 1751.71,1922.25 1756.04,1920.35Z" style="fill:rgb(150,87,171);"/>
                                    </g>
                                    <g transform="matrix(1,0,0,1,-4723.97,-9696.66)">
                                        <path d="M5377.42,10590.5C5374.98,10589.1 5373.28,10586.7 5372.78,10584C5370.31,10568.3 5375.57,10546.8 5394.53,10536.4C5396.99,10535.1 5400.06,10535.8 5401.7,10538.1C5409.4,10548.7 5413.35,10557 5413.35,10557L5472.73,10572.9L5459.86,10618.7C5459.86,10618.7 5449.56,10622.5 5444.15,10624.5C5442.09,10625.2 5439.81,10625 5437.89,10624C5426.93,10617.9 5389.28,10597 5377.42,10590.5Z" style="fill:rgb(150,87,171);"/>
                                    </g>
                                    <g transform="matrix(1.02201,0,0,0.870001,-4607.86,-8366.44)">
                                        <path d="M5198.57,10676.9C5185.62,10662 5177.31,10639 5177.31,10613.2C5177.31,10568.5 5202.4,10532.1 5233.3,10532.1C5256.1,10532.1 5262.08,10620.4 5251.23,10666.8C5251.23,10666.8 5227.08,10677.1 5215.81,10682C5212.2,10683.5 5208.21,10683.1 5204.86,10681C5201.81,10679 5198.57,10676.9 5198.57,10676.9Z" style="fill:rgb(150,87,171);"/>
                                    </g>
                                    <g transform="matrix(0.796705,0,0,0.896688,-3426.9,-8647.51)">
                                        <path d="M5205.58,10678.4C5202.97,10679.3 5200.05,10678.6 5198.33,10676.6C5185.53,10661.7 5177.31,10638.9 5177.31,10613.2C5177.31,10568.5 5202.4,10532.1 5233.3,10532.1C5264.2,10532.1 5289.29,10568.5 5289.29,10613.2C5289.29,10625.5 5287.4,10637.1 5284.03,10647.6C5282.75,10651.4 5279.53,10654.4 5275.34,10655.8C5259.45,10661 5218.84,10674.1 5205.58,10678.4Z" style="fill:rgb(89,48,102);"/>
                                    </g>
                                    <g transform="matrix(2.13191,0,0,2.13191,-10650.6,-20976.6)">
                                        <path d="M5164.85,9994.97C5157.59,9979.51 5153.52,9962.25 5153.52,9944.04C5153.52,9937.92 5153.98,9931.91 5154.87,9926.03C5167.91,9934.04 5178.6,9945.5 5185.67,9959.14C5176.52,9969.47 5169.38,9981.62 5164.85,9994.97Z" style="fill:rgb(196,111,164);"/>
                                    </g>
                                    <g transform="matrix(2.13191,0,0,2.13191,-10650.6,-20976.6)">
                                        <path d="M5162.94,9995.87C5155.55,9980.13 5151.41,9962.57 5151.41,9944.04C5151.41,9937.81 5151.88,9931.69 5152.78,9925.72C5152.89,9925.02 5153.34,9924.42 5153.98,9924.12C5154.62,9923.82 5155.37,9923.86 5155.97,9924.23C5169.34,9932.44 5180.3,9944.19 5187.54,9958.17C5187.94,9958.94 5187.83,9959.88 5187.25,9960.54C5178.29,9970.67 5171.29,9982.57 5166.85,9995.65C5166.57,9996.47 5165.83,9997.03 5164.97,9997.08C5164.11,9997.13 5163.31,9996.65 5162.94,9995.87ZM5164.67,9989.35C5169.1,9978.13 5175.38,9967.84 5183.12,9958.84C5176.76,9947.06 5167.59,9937.01 5156.51,9929.59C5155.93,9934.33 5155.63,9939.15 5155.63,9944.04C5155.63,9960.09 5158.85,9975.4 5164.67,9989.35Z" style="fill:rgb(196,111,164);"/>
                                    </g>
                                    <g transform="matrix(1,0,0,1,-7004.04,-9696.66)">
                                        <path d="M7364.61,10029.3L7358.05,9962.9L7374.54,9985.31L7379.51,9895.86L7400.07,9939.96L7405.18,9918.37L7409.3,9952.28C7383.95,9981.02 7373.61,10005.3 7364.61,10029.3Z" style="fill:rgb(221,221,225);"/>
                                    </g>
                                    <g transform="matrix(1,0,0,1,-7004.04,-9696.66)">
                                        <path d="M7360.63,10029.7L7354.06,9963.29C7353.89,9961.5 7354.93,9959.81 7356.61,9959.16C7358.29,9958.52 7360.2,9959.08 7361.27,9960.53L7371.16,9973.97L7375.52,9895.64C7375.62,9893.81 7376.95,9892.28 7378.76,9891.93C7380.56,9891.59 7382.36,9892.51 7383.14,9894.17L7398.83,9927.83L7401.29,9917.45C7401.73,9915.57 7403.47,9914.27 7405.4,9914.38C7407.34,9914.49 7408.91,9915.97 7409.15,9917.89L7413.27,9951.8C7413.41,9952.93 7413.06,9954.07 7412.3,9954.93C7387.36,9983.2 7377.21,10007.1 7368.36,10030.7C7367.7,10032.5 7365.94,10033.6 7364.09,10033.3C7362.25,10033.1 7360.81,10031.6 7360.63,10029.7ZM7403.91,9941.08C7403.46,9942.64 7402.1,9943.77 7400.48,9943.94C7398.78,9944.11 7397.17,9943.19 7396.45,9941.65L7382.62,9912L7378.53,9985.53C7378.44,9987.22 7377.3,9988.66 7375.68,9989.14C7374.06,9989.63 7372.32,9989.04 7371.32,9987.68L7363.46,9977L7366.96,10012.4C7374.96,9993.29 7385.54,9973.48 7405.12,9950.99L7403.91,9941.08Z" style="fill:rgb(221,221,225);"/>
                                    </g>
                                    <g transform="matrix(2.29105,0,0,2.29105,-11340.5,-22697.5)">
                                        <path d="M5163.71,10013.6C5166.81,9994.09 5174.98,9976.24 5186.82,9961.46C5192.09,9972.44 5195.04,9984.75 5195.04,9997.73C5195.04,10005 5194.11,10012.1 5192.36,10018.9C5183.48,10015.5 5173.86,10013.6 5163.8,10013.6L5163.71,10013.6Z" style="fill:rgb(196,111,164);"/>
                                    </g>
                                    <g transform="matrix(2.29105,0,0,2.29105,-11340.5,-22697.5)">
                                        <path d="M5161.77,10013.3C5164.92,9993.44 5173.23,9975.27 5185.29,9960.23C5185.71,9959.7 5186.38,9959.43 5187.05,9959.51C5187.72,9959.59 5188.3,9960 5188.6,9960.61C5193.99,9971.85 5197.01,9984.44 5197.01,9997.73C5197.01,10005.2 5196.05,10012.4 5194.26,10019.4C5194.12,10019.9 5193.76,10020.4 5193.26,10020.6C5192.76,10020.9 5192.18,10020.9 5191.66,10020.7C5183,10017.4 5173.61,10015.6 5163.8,10015.6L5163.71,10015.6C5163.13,10015.6 5162.59,10015.3 5162.21,10014.9C5161.84,10014.5 5161.68,10013.9 5161.77,10013.3ZM5166.03,10011.7C5174.75,10011.9 5183.13,10013.5 5190.97,10016.3C5192.35,10010.3 5193.08,10004.1 5193.08,9997.73C5193.08,9986.19 5190.69,9975.2 5186.38,9965.23C5176.25,9978.65 5169.13,9994.48 5166.03,10011.7Z" style="fill:rgb(196,111,164);"/>
                                    </g>
                                    <g transform="matrix(1,0,0,1,-7004.04,-9696.66)">
                                        <path d="M7493.38,9941.5L7521.3,9895.86L7520.29,9929.17L7568.85,9873.41L7554.34,9924.62L7580.02,9906.09L7559.53,9953.52C7538.96,9945.06 7516.92,9942.18 7493.38,9941.5Z" style="fill:rgb(221,221,225);"/>
                                    </g>
                                    <g transform="matrix(1,0,0,1,-7004.04,-9696.66)">
                                        <path d="M7489.96,9939.41L7517.89,9893.77C7518.84,9892.23 7520.71,9891.51 7522.45,9892.03C7524.19,9892.55 7525.36,9894.17 7525.3,9895.98L7524.63,9918.09L7565.83,9870.78C7567.06,9869.37 7569.1,9869 7570.75,9869.89C7572.4,9870.78 7573.2,9872.7 7572.69,9874.5L7561.32,9914.65L7577.68,9902.84C7579.14,9901.79 7581.12,9901.84 7582.53,9902.97C7583.93,9904.09 7584.41,9906.02 7583.69,9907.67L7563.2,9955.11C7562.33,9957.11 7560.02,9958.05 7558.01,9957.22C7537.88,9948.94 7516.3,9946.16 7493.26,9945.5C7491.84,9945.46 7490.54,9944.66 7489.86,9943.41C7489.18,9942.15 7489.22,9940.63 7489.96,9939.41ZM7500.35,9937.76C7520.46,9938.75 7539.47,9941.61 7557.39,9948.38L7570.6,9917.82L7556.68,9927.86C7555.3,9928.86 7553.44,9928.87 7552.04,9927.9C7550.65,9926.92 7550.02,9925.17 7550.49,9923.53L7560.13,9889.51L7523.31,9931.79C7522.2,9933.07 7520.4,9933.51 7518.83,9932.89C7517.26,9932.27 7516.24,9930.73 7516.29,9929.05L7516.85,9910.81L7500.35,9937.76Z" style="fill:rgb(221,221,225);"/>
                                    </g>
                                    <g transform="matrix(1.02635,-0.088896,0.094717,1.09356,-7020.05,-10060.1)">
                                        <path d="M6687.34,10131C6697.02,10131 6704.87,10138.4 6704.87,10147.4L6704.87,10161.9C6704.87,10171 6697.02,10178.4 6687.34,10178.4L6577.11,10178.4C6567.44,10178.4 6559.59,10171 6559.59,10161.9L6559.59,10147.4C6559.59,10138.4 6567.44,10131 6577.11,10131L6687.34,10131Z" style="fill:rgb(43,168,185);"/>
                                    </g>
                                    <g transform="matrix(0.989284,-0.085686,0.085686,0.989284,-6689.59,-9019.56)">
                                        <circle cx="6585.14" cy="10152.4" r="7.552" style="fill:white;"/>
                                    </g>
                                    <g transform="matrix(0.989284,-0.085686,0.085686,0.989284,-6580.32,-9029.03)">
                                        <circle cx="6585.14" cy="10152.4" r="7.552" style="fill:white;"/>
                                    </g>
                                    <g transform="matrix(1,0,0,1,-5876.25,-9696.66)">
                                        <path d="M6383.8,10445.5C6381.42,10447.4 6377.96,10447 6376.08,10444.6C6374.19,10442.2 6374.6,10438.8 6376.98,10436.9C6447.03,10381.5 6457.89,10297.8 6478.13,10236C6492.51,10192.1 6511.65,10158.8 6555.94,10151C6558.93,10150.5 6561.79,10152.5 6562.32,10155.5C6562.84,10158.5 6560.84,10161.3 6557.86,10161.8C6517.87,10168.9 6501.56,10199.8 6488.58,10239.4C6467.78,10303 6455.81,10388.5 6383.8,10445.5Z" style="fill:rgb(43,168,185);"/>
                                    </g>
                                    <g transform="matrix(0.96,0,0,1,-6692.57,-9696.56)">
                                        <path d="M7720.15,10118.7C7718.29,10118.9 7716.6,10119.8 7715.49,10121.2C7714.38,10122.7 7713.97,10124.5 7714.36,10126.2C7715.22,10130.1 7716.26,10134.7 7717.05,10138.3C7717.72,10141.3 7720.6,10143.4 7723.81,10143.2C7735.18,10142.4 7760.88,10140.8 7772.18,10140.1C7775.35,10139.9 7777.9,10137.5 7778.21,10134.5C7778.58,10130.7 7779.1,10125.5 7779.52,10121.3C7779.7,10119.4 7779.03,10117.6 7777.68,10116.3C7776.32,10115 7774.44,10114.3 7772.52,10114.5C7759.41,10115.6 7732.99,10117.7 7720.15,10118.7Z" style="fill:rgb(255,229,213);"/>
                                    </g>
                                    <g transform="matrix(1,0,0,1,-7001.77,-9696.81)">
                                        <path d="M7719.75,10182.2C7719.75,10182.2 7726.9,10174.9 7732.76,10168.9C7734.26,10167.4 7736.47,10166.8 7738.52,10167.4C7740.57,10168 7742.13,10169.7 7742.57,10171.8C7743.55,10176.3 7744.47,10180.6 7744.47,10180.6L7719.75,10182.2Z" style="fill:rgb(255,229,213);"/>
                                    </g>
                                    <g transform="matrix(0.841329,-0.594526,0.633459,0.896424,-11566,-4375.72)">
                                        <path d="M6687.34,10131C6697.02,10131 6704.87,10138.4 6704.87,10147.4L6704.87,10161.9C6704.87,10171 6697.02,10178.4 6687.34,10178.4L6577.11,10178.4C6567.44,10178.4 6559.59,10171 6559.59,10161.9L6559.59,10147.4C6559.59,10138.4 6567.44,10131 6577.11,10131L6687.34,10131Z" style="fill:rgb(43,168,185);"/>
                                    </g>
                                    <g transform="matrix(0.810945,-0.573055,0.573055,0.810945,-10755.7,-3644.02)">
                                        <circle cx="6585.14" cy="10152.4" r="7.552" style="fill:white;"/>
                                    </g>
                                    <g transform="matrix(0.810945,-0.573055,0.573055,0.810945,-10666.2,-3707.32)">
                                        <circle cx="6585.14" cy="10152.4" r="7.552" style="fill:white;"/>
                                    </g>
                                    <g transform="matrix(1,0,0,1,-7004.68,-9691.82)">
                                        <path d="M7417.69,10460.1C7416.27,10461.2 7415.44,10462.9 7415.49,10464.6C7415.54,10466.4 7416.45,10468 7417.93,10469C7421.97,10471.6 7426.95,10474.8 7430.11,10476.8C7431.97,10478 7434.39,10477.9 7436.17,10476.6C7442.8,10471.7 7458.81,10459.8 7465.97,10454.5C7468.04,10452.9 7468.72,10450.1 7467.58,10447.8C7465.93,10444.5 7463.56,10439.7 7461.72,10436C7461.02,10434.6 7459.74,10433.5 7458.22,10433.1C7456.69,10432.8 7455.08,10433.1 7453.81,10434C7445.05,10440.3 7427.22,10453.3 7417.69,10460.1Z" style="fill:rgb(255,229,213);"/>
                                    </g>
                                    <g transform="matrix(1,0,0,1,-7008.16,-9695.83)">
                                        <path d="M7482.07,10496.5C7481.52,10497 7480.77,10497.1 7480.12,10496.8C7479.48,10496.5 7479.05,10495.9 7479.01,10495.2C7478.85,10492.4 7478.64,10488.6 7478.44,10485.2C7478.35,10483.5 7479.09,10481.8 7480.44,10480.7C7481.79,10479.6 7483.59,10479.3 7485.25,10479.7C7488.51,10480.6 7492.2,10481.7 7494.83,10482.4C7495.51,10482.6 7496.03,10483.2 7496.17,10483.9C7496.31,10484.6 7496.05,10485.3 7495.5,10485.7C7491.89,10488.6 7485.69,10493.6 7482.07,10496.5Z" style="fill:rgb(255,229,213);"/>
                                    </g>
                                    <g transform="matrix(1,0,0,1,-8196.89,-9699.01)">
                                        <path d="M8708.78,10104.5C8708.04,10102.1 8709.37,10099.6 8711.74,10098.8C8714.11,10098.1 8716.64,10099.4 8717.37,10101.8C8720.03,10110.4 8719.82,10120.9 8717.23,10130.9C8717.06,10131.6 8716.73,10132.2 8716.28,10132.7L8682.13,10172.4C8680.51,10174.3 8677.67,10174.5 8675.79,10172.9C8673.91,10171.2 8673.69,10168.4 8675.32,10166.5L8708.76,10127.7C8710.69,10119.6 8710.9,10111.3 8708.78,10104.5Z"/>
                                    </g>
                                    <g transform="matrix(1.59833,0,0,1.59833,-13416.6,-15778.7)">
                                        <circle cx="8718.73" cy="10152.8" r="7.733"/>
                                    </g>
                                    <g transform="matrix(1.47333,0,0,1.47333,-12254.4,-14543)">
                                        <circle cx="8718.73" cy="10152.8" r="7.733"/>
                                    </g>
                                </g>
                            </g>
                        </g>
                    </g>
                </g>
            </g>
        </g>
    </g>
</svg>
