<?xml version="1.0" encoding="UTF-8" standalone="no"?>
<!DOCTYPE svg PUBLIC "-//W3C//DTD SVG 1.1//EN" "http://www.w3.org/Graphics/SVG/1.1/DTD/svg11.dtd">
<svg width="100%" height="100%" viewBox="0 0 800 94" version="1.1" xmlns="http://www.w3.org/2000/svg" xmlns:xlink="http://www.w3.org/1999/xlink" xml:space="preserve" xmlns:serif="http://www.serif.com/" style="fill-rule:evenodd;clip-rule:evenodd;stroke-linejoin:round;stroke-miterlimit:2;">
    <g transform="matrix(1,0,0,1,-3085.557204,-806.075533)">
        <g id="アートボード1" transform="matrix(0.266667,0,0,0.0469,3085.557204,806.075533)">
            <rect x="0" y="0" width="3000" height="2000" style="fill:none;"/>
            <g transform="matrix(1.484441,0,0,8.645604,466.808189,-799.646148)">
                <path d="M416.138,258.872L432.856,258.872L432.856,193.242L416.138,193.242L416.138,258.872ZM432.856,275.193L449.752,275.193L449.752,258.872L432.856,258.872L432.856,275.193ZM449.752,258.872L466.47,258.872L466.47,242.378L449.752,242.378L449.752,258.872ZM466.47,275.193L483.365,275.193L483.365,258.872L466.47,258.872L466.47,275.193ZM483.365,258.872L500.083,258.872L500.083,193.242L483.365,193.242L483.365,258.872Z" style="fill:rgb(154,154,154);fill-rule:nonzero;"/>
            </g>
            <g transform="matrix(1.484441,0,0,8.645604,466.808189,-799.646148)">
                <path d="M530.673,275.193L547.569,275.193L547.569,193.242L530.673,193.242L530.673,275.193ZM530.673,176.747L547.569,176.747L547.569,160.426L530.673,160.426L530.673,176.747ZM513.955,209.563L530.673,209.563L530.673,193.242L513.955,193.242L513.955,209.563Z" style="fill:rgb(154,154,154);fill-rule:nonzero;"/>
            </g>
            <g transform="matrix(1.484441,0,0,8.645604,466.808189,-799.646148)">
                <path d="M576.914,258.872L593.81,258.872L593.81,160.426L576.914,160.426L576.914,258.872ZM593.81,275.193L627.423,275.193L627.423,258.872L593.81,258.872L593.81,275.193ZM560.196,209.563L576.914,209.563L576.914,193.242L560.196,193.242L560.196,209.563ZM593.81,209.563L627.423,209.563L627.423,193.242L593.81,193.242L593.81,209.563ZM627.423,258.872L644.141,258.872L644.141,242.378L627.423,242.378L627.423,258.872Z" style="fill:rgb(154,154,154);fill-rule:nonzero;"/>
            </g>
            <g transform="matrix(1.484441,0,0,8.645604,466.808189,-799.646148)">
                <path d="M658.013,275.193L674.731,275.193L674.731,160.426L658.013,160.426L658.013,275.193ZM674.731,193.242L674.731,209.563L725.24,209.563L725.24,193.242L674.731,193.242ZM725.24,275.193L741.958,275.193L741.958,209.563L725.24,209.563L725.24,275.193Z" style="fill:rgb(154,154,154);fill-rule:nonzero;"/>
            </g>
        </g>
    </g>
</svg>
