<?xml version="1.0" encoding="UTF-8" standalone="no"?>
<!DOCTYPE svg PUBLIC "-//W3C//DTD SVG 1.1//EN" "http://www.w3.org/Graphics/SVG/1.1/DTD/svg11.dtd">
<svg width="100%" height="100%" viewBox="0 0 800 94" version="1.1" xmlns="http://www.w3.org/2000/svg" xmlns:xlink="http://www.w3.org/1999/xlink" xml:space="preserve" xmlns:serif="http://www.serif.com/" style="fill-rule:evenodd;clip-rule:evenodd;stroke-linejoin:round;stroke-miterlimit:2;">
    <g transform="matrix(1,0,0,1,-3085.557204,-294.717894)">
        <g id="アートボード1" transform="matrix(0.266667,0,0,0.0469,3085.557204,294.717894)">
            <rect x="0" y="0" width="3000" height="2000" style="fill:none;"/>
            <g transform="matrix(1.136784,0,0,6.6208,575.548762,-301.191053)">
                <path d="M475.363,183.802L460.601,183.802L460.601,154.977L475.363,154.977L475.363,183.802ZM505.063,183.802L505.063,169.39L564.462,169.39L564.462,183.802L505.063,183.802ZM460.601,256.203L445.664,256.203L445.664,183.802L460.601,183.802L460.601,256.203ZM490.3,256.203L490.3,227.209L505.063,227.209L505.063,256.203L490.3,256.203ZM475.363,256.203L475.363,285.197L460.601,285.197L460.601,256.203L475.363,256.203ZM564.462,270.785L505.063,270.785L505.063,256.203L564.462,256.203L564.462,270.785Z" style="fill:rgb(154,154,154);fill-rule:nonzero;"/>
                <path d="M741.067,154.977L741.067,169.39L696.605,169.39L696.605,183.802L741.067,183.802L741.067,241.791L696.605,241.791L696.605,270.615L666.906,270.615L666.906,256.203L681.668,256.203L681.668,241.791L637.206,241.791L637.206,183.802L681.668,183.802L681.668,169.39L637.206,169.39L637.206,154.977L681.668,154.977L681.668,125.983L696.605,125.983L696.605,154.977L741.067,154.977ZM607.68,140.396L622.443,140.396L622.443,169.39L607.68,169.39L607.68,140.396ZM577.981,198.384L592.744,198.384L592.744,169.39L607.68,169.39L607.68,299.609L592.744,299.609L592.744,212.796L577.981,212.796L577.981,198.384ZM652.143,227.209L681.668,227.209L681.668,198.384L652.143,198.384L652.143,227.209ZM726.131,227.209L726.131,198.384L696.605,198.384L696.605,227.209L726.131,227.209ZM666.906,285.197L652.143,285.197L652.143,270.615L666.906,270.615L666.906,285.197ZM711.368,270.615L711.368,285.197L696.605,285.197L696.605,270.615L711.368,270.615ZM652.143,299.609L622.443,299.609L622.443,285.197L652.143,285.197L652.143,299.609ZM741.067,285.197L741.067,299.609L711.368,299.609L711.368,285.197L741.067,285.197Z" style="fill:rgb(154,154,154);fill-rule:nonzero;"/>
                <path d="M799.049,154.977L828.748,154.977L828.748,169.39L799.049,169.39L799.049,154.977ZM858.448,169.39L858.448,183.802L828.748,183.802L828.748,169.39L858.448,169.39ZM799.049,212.796L799.049,198.384L858.448,198.384L858.448,212.796L799.049,212.796ZM799.049,227.209L769.349,227.209L769.349,212.796L799.049,212.796L799.049,227.209ZM858.448,256.203L858.448,212.796L873.211,212.796L873.211,256.203L858.448,256.203ZM858.448,270.785L828.748,270.785L828.748,256.203L858.448,256.203L858.448,270.785ZM828.748,285.197L799.049,285.197L799.049,270.785L828.748,270.785L828.748,285.197Z" style="fill:rgb(154,154,154);fill-rule:nonzero;"/>
            </g>
        </g>
    </g>
</svg>
