<?xml version="1.0" encoding="UTF-8" standalone="no"?>
<!DOCTYPE svg PUBLIC "-//W3C//DTD SVG 1.1//EN" "http://www.w3.org/Graphics/SVG/1.1/DTD/svg11.dtd">
<svg width="100%" height="100%" viewBox="0 0 800 94" version="1.1" xmlns="http://www.w3.org/2000/svg" xmlns:xlink="http://www.w3.org/1999/xlink" xml:space="preserve" xmlns:serif="http://www.serif.com/" style="fill-rule:evenodd;clip-rule:evenodd;stroke-linejoin:round;stroke-miterlimit:2;">
    <g transform="matrix(1,0,0,1,-3085.557204,-148.092076)">
        <g id="アートボード1" transform="matrix(0.266667,0,0,0.0469,3085.557204,148.092076)">
            <rect x="0" y="0" width="3000" height="2000" style="fill:none;"/>
            <clipPath id="_clip1">
                <rect x="0" y="0" width="3000" height="2000"/>
            </clipPath>
            <g clip-path="url(#_clip1)">
                <g transform="matrix(2.164281,0,0,12.305794,697.470952,-1801.478493)">
                    <path d="M672.411,273.11L672.411,220.154C672.411,218.417 672.758,217.202 673.8,215.813C676.578,211.82 680.745,208.521 686.301,208.521C694.635,208.521 699.149,213.903 699.149,223.279L699.149,273.11C699.149,274.325 700.017,275.193 701.232,275.193L717.727,275.193C718.942,275.193 719.81,274.325 719.81,273.11L719.81,219.633C719.81,218.244 719.984,217.202 720.852,215.987C723.457,211.82 727.624,208.521 733.701,208.521C741.167,208.521 746.723,213.556 746.723,223.279L746.723,273.11C746.723,274.325 747.591,275.193 748.806,275.193L765.301,275.193C766.516,275.193 767.384,274.325 767.384,273.11L767.384,220.501C767.384,202.27 757.487,189.943 739.951,189.943C729.534,189.943 721.894,195.846 716.859,201.923C716.164,202.617 715.643,202.617 715.123,201.749C710.782,194.457 702.969,189.943 692.551,189.943C684.391,189.943 677.793,193.589 672.758,198.45C672.063,199.145 671.542,198.798 671.542,197.93L671.542,194.631C671.542,193.415 670.674,192.547 669.459,192.547L653.833,192.547C652.617,192.547 651.749,193.415 651.749,194.631L651.749,273.11C651.749,274.325 652.617,275.193 653.833,275.193L670.327,275.193C671.542,275.193 672.411,274.325 672.411,273.11Z" style="fill:rgb(222,222,222);fill-rule:nonzero;"/>
                </g>
                <g transform="matrix(2.164281,0,0,12.305794,-930.881736,-1802.208853)">
                    <path d="M672.411,273.11L672.411,220.154C672.411,218.417 672.758,217.202 673.8,215.813C676.578,211.82 680.745,208.521 686.301,208.521C694.635,208.521 699.149,213.903 699.149,223.279L699.149,273.11C699.149,274.325 700.017,275.193 701.232,275.193L717.727,275.193C718.942,275.193 719.81,274.325 719.81,273.11L719.81,219.633C719.81,218.244 719.984,217.202 720.852,215.987C723.457,211.82 727.624,208.521 733.701,208.521C741.167,208.521 746.723,213.556 746.723,223.279L746.723,273.11C746.723,274.325 747.591,275.193 748.806,275.193L765.301,275.193C766.516,275.193 767.384,274.325 767.384,273.11L767.384,220.501C767.384,202.27 757.487,189.943 739.951,189.943C729.534,189.943 721.894,195.846 716.859,201.923C716.164,202.617 715.643,202.617 715.123,201.749C710.782,194.457 702.969,189.943 692.551,189.943C684.391,189.943 677.793,193.589 672.758,198.45C672.063,199.145 671.542,198.798 671.542,197.93L671.542,194.631C671.542,193.415 670.674,192.547 669.459,192.547L653.833,192.547C652.617,192.547 651.749,193.415 651.749,194.631L651.749,273.11C651.749,274.325 652.617,275.193 653.833,275.193L670.327,275.193C671.542,275.193 672.411,274.325 672.411,273.11Z" style="fill:rgb(222,222,222);fill-rule:nonzero;"/>
                </g>
                <g transform="matrix(2.164281,0,0,12.305794,685.603176,-1801.478493)">
                    <path d="M839.055,213.223C838.51,211.655 837.033,210.604 835.373,210.604C828.979,210.604 813.742,210.604 813.742,210.604C813.048,210.604 812.701,210.952 812.701,211.646L812.701,273.11C812.701,274.325 812.006,275.193 810.791,275.193L794.296,275.193C793.081,275.193 792.213,274.325 792.213,273.11L792.213,211.646C792.213,210.952 791.865,210.604 791.171,210.604L785.094,210.604C783.879,210.604 783.01,209.736 783.01,208.521L783.01,194.631C783.01,193.415 783.879,192.721 785.094,192.721L791.171,192.721C791.865,192.721 792.213,192.374 792.213,191.679L792.213,173.101C792.213,156.78 801.936,146.883 816.868,146.883L829.046,146.883C830.203,146.883 831.141,147.821 831.141,148.979L831.141,164.444C831.141,165.601 830.203,166.539 829.046,166.539L818.898,166.539C815.289,166.887 812.701,169.786 812.701,174.664L812.701,191.679C812.701,192.374 813.048,192.721 813.742,192.721L851.028,192.721C851.147,192.721 851.263,192.727 851.374,192.741L852.348,192.741C853.563,192.741 854.431,193.261 854.779,194.303L870.171,243.42C870.518,244.461 871.213,244.461 871.56,243.42L887.013,194.11C887.36,193.068 888.228,192.547 889.443,192.547L907.5,192.547C908.889,192.547 909.584,193.415 909.063,194.804L869.303,307.835C868.955,308.877 868.261,309.398 867.219,309.398L849.336,309.398C847.947,309.398 847.252,308.529 847.773,306.967L859.059,275.367C859.58,273.804 859.58,272.589 859.059,270.853C859.059,270.853 843.075,224.806 839.055,213.223Z" style="fill:rgb(222,222,222);"/>
                </g>
                <g transform="matrix(2.164281,0,0,12.305794,-942.749513,-1802.208853)">
                    <path d="M839.055,213.223C838.51,211.655 837.033,210.604 835.373,210.604C828.979,210.604 813.742,210.604 813.742,210.604C813.048,210.604 812.701,210.952 812.701,211.646L812.701,273.11C812.701,274.325 812.006,275.193 810.791,275.193L794.296,275.193C793.081,275.193 792.213,274.325 792.213,273.11L792.213,211.646C792.213,210.952 791.865,210.604 791.171,210.604L785.094,210.604C783.879,210.604 783.01,209.736 783.01,208.521L783.01,194.631C783.01,193.415 783.879,192.721 785.094,192.721L791.171,192.721C791.865,192.721 792.213,192.374 792.213,191.679L792.213,173.101C792.213,156.78 801.936,146.883 816.868,146.883L829.046,146.883C830.203,146.883 831.141,147.821 831.141,148.979L831.141,164.444C831.141,165.601 830.203,166.539 829.046,166.539L818.898,166.539C815.289,166.887 812.701,169.786 812.701,174.664L812.701,191.679C812.701,192.374 813.048,192.721 813.742,192.721L851.028,192.721C851.147,192.721 851.263,192.727 851.374,192.741L852.348,192.741C853.563,192.741 854.431,193.261 854.779,194.303L870.171,243.42C870.518,244.461 871.213,244.461 871.56,243.42L887.013,194.11C887.36,193.068 888.228,192.547 889.443,192.547L907.5,192.547C908.889,192.547 909.584,193.415 909.063,194.804L869.303,307.835C868.955,308.877 868.261,309.398 867.219,309.398L849.336,309.398C847.947,309.398 847.252,308.529 847.773,306.967L859.059,275.367C859.58,273.804 859.58,272.589 859.059,270.853C859.059,270.853 843.075,224.806 839.055,213.223Z" style="fill:rgb(222,222,222);"/>
                </g>
                <g transform="matrix(3.375066,0,0,19.190143,-739.277086,-14961.880195)">
                    <path d="M741.254,862.424C718.652,862.424 701.506,845.835 701.506,821.34C701.506,796.846 718.652,780.256 741.254,780.256C748.966,780.256 756.092,782.132 762.06,785.553C763.041,786.131 763.643,787.184 763.643,788.323C763.653,791.293 763.653,797.316 763.653,801.634C763.653,802.287 763.238,802.869 762.619,803.081C762.001,803.294 761.316,803.091 760.914,802.576C756.286,796.885 749.438,793.84 741.254,793.84C726.001,793.84 715.869,805.196 715.869,821.34C715.869,837.484 726.001,848.841 741.254,848.841C771.87,848.841 774.761,808.138 806.919,806.277C807.487,806.244 808.526,806.205 809.059,806.187C809.257,806.18 809.385,806.176 809.393,806.176C825.538,806.176 837.117,818.869 837.117,834.233C837.117,849.598 825.538,862.291 809.393,862.291C796.288,862.291 786.191,853.926 782.854,842.558C782.67,841.912 782.13,841.43 781.468,841.319C780.805,841.209 780.138,841.491 779.755,842.042C772.453,852.466 762.993,862.424 741.254,862.424ZM809.393,818.535C809.29,818.535 809.187,818.536 809.084,818.538C808.723,818.545 808.367,818.565 808.017,818.597C800.125,819.318 795.142,826.228 795.142,834.233C795.142,842.695 800.709,849.932 809.393,849.932C818.078,849.932 823.645,842.695 823.645,834.233C823.645,825.772 818.078,818.535 809.393,818.535Z" style="fill:rgb(222,222,222);"/>
                </g>
                <g transform="matrix(3.375066,0,0,19.190143,-2367.629774,-14962.610555)">
                    <path d="M741.254,862.424C718.652,862.424 701.506,845.835 701.506,821.34C701.506,796.846 718.652,780.256 741.254,780.256C748.966,780.256 756.092,782.132 762.06,785.553C763.041,786.131 763.643,787.184 763.643,788.323C763.653,791.293 763.653,797.316 763.653,801.634C763.653,802.287 763.238,802.869 762.619,803.081C762.001,803.294 761.316,803.091 760.914,802.576C756.286,796.885 749.438,793.84 741.254,793.84C726.001,793.84 715.869,805.196 715.869,821.34C715.869,837.484 726.001,848.841 741.254,848.841C771.87,848.841 774.761,808.138 806.919,806.277C807.487,806.244 808.526,806.205 809.059,806.187C809.257,806.18 809.385,806.176 809.393,806.176C825.538,806.176 837.117,818.869 837.117,834.233C837.117,849.598 825.538,862.291 809.393,862.291C796.288,862.291 786.191,853.926 782.854,842.558C782.67,841.912 782.13,841.43 781.468,841.319C780.805,841.209 780.138,841.491 779.755,842.042C772.453,852.466 762.993,862.424 741.254,862.424ZM809.393,818.535C809.29,818.535 809.187,818.536 809.084,818.538C808.723,818.545 808.367,818.565 808.017,818.597C800.125,819.318 795.142,826.228 795.142,834.233C795.142,842.695 800.709,849.932 809.393,849.932C818.078,849.932 823.645,842.695 823.645,834.233C823.645,825.772 818.078,818.535 809.393,818.535Z" style="fill:rgb(222,222,222);"/>
                </g>
                <g transform="matrix(2.164281,0,0,12.305794,688.31796,-1859.199812)">
                    <path d="M966.533,278.492C939.969,278.492 922.953,260.609 922.953,232.481L922.953,155.738C922.953,154.523 923.821,153.655 925.037,153.655L942.052,153.655C943.267,153.655 944.136,154.523 944.136,155.738L944.136,230.919C944.136,248.802 952.296,257.831 966.533,257.831C980.771,257.831 988.931,248.802 988.931,230.919L988.931,155.738C988.931,154.523 989.799,153.655 991.015,153.655L1016.49,153.655C1017.082,153.655 1017.651,153.89 1018.07,154.309C1018.489,154.728 1018.724,155.296 1018.724,155.889L1018.724,276.258C1018.724,276.851 1018.489,277.419 1018.07,277.838C1017.651,278.257 1017.082,278.492 1016.49,278.492L966.533,278.492Z" style="fill:rgb(222,222,222);"/>
                </g>
                <g transform="matrix(2.164281,0,0,12.305794,697.101024,-1859.199812)">
                    <path d="M1061.964,153.655L1039.977,153.655C1038.762,153.655 1037.894,154.523 1037.894,155.738L1037.894,276.409C1037.894,277.624 1038.762,278.492 1039.977,278.492L1061.964,278.492C1063.18,278.492 1064.048,277.624 1064.048,276.409L1064.048,155.738C1064.048,154.523 1063.18,153.655 1061.964,153.655Z" style="fill:rgb(222,222,222);fill-rule:nonzero;"/>
                </g>
            </g>
        </g>
    </g>
</svg>
